Coordinates
version=1
nRows=15
nColumns=34
inDegrees=no

Units are S.I. units (second, meters, Newtons, ...)
If the header above contains a line with 'inDegrees', this indicates whether rotational values are in degrees (yes) or radians (no).

endheader
time	pelvis_tilt	pelvis_list	pelvis_rotation	pelvis_tx	pelvis_ty	pelvis_tz	hip_flexion_r	hip_adduction_r	hip_rotation_r	knee_angle_r	ankle_angle_r	subtalar_angle_r	mtp_angle_r	hip_flexion_l	hip_adduction_l	hip_rotation_l	knee_angle_l	ankle_angle_l	subtalar_angle_l	mtp_angle_l	lumbar_extension	lumbar_bending	lumbar_rotation	arm_flex_r	arm_add_r	arm_rot_r	elbow_flex_r	pro_sup_r	arm_flex_l	arm_add_l	arm_rot_l	elbow_flex_l	pro_sup_l
0	0.224789	-0.0117635	0.0367828	-0.595063	0.56599	-0.616017	1.33352	-0.251083	0.186879	1.68268	0.0212802	-0.607747	-0.00241763	1.35109	-0.188403	0.180441	1.67661	-0.044313	-0.594636	-0.00241763	-0.366361	0.0325811	-0.02499	-0.0871898	-0.151457	-0.0295926	2.08129	2.07493	-0.095231	-0.128482	-0.0156611	1.96929	2.08108
0.01	0.224878	-0.0118535	0.0368505	-0.595056	0.565999	-0.616014	1.33338	-0.25112	0.186728	1.68272	0.021301	-0.607884	-0.00241763	1.35106	-0.188404	0.180673	1.6767	-0.0443431	-0.594718	-0.00241763	-0.36648	0.0325851	-0.0246685	-0.0875592	-0.151438	-0.0301046	2.08113	2.07526	-0.0955715	-0.12813	-0.0158211	1.96922	2.08168
0.02	0.225523	-0.0115526	0.0369197	-0.595117	0.566028	-0.616009	1.33284	-0.251294	0.187051	1.68278	0.0212609	-0.607881	-0.00241763	1.35032	-0.188202	0.180418	1.67663	-0.0444848	-0.595017	-0.00241763	-0.367886	0.0326241	-0.0251309	-0.0871644	-0.151176	-0.0294218	2.08148	2.07408	-0.096033	-0.128101	-0.0168993	1.96986	2.08269
0.03	0.226458	-0.010987	0.0369117	-0.595218	0.56606	-0.615984	1.33214	-0.251436	0.18769	1.68283	0.021178	-0.607836	-0.00241763	1.34919	-0.188	0.179837	1.67646	-0.0445697	-0.594955	-0.00241763	-0.370025	0.0325144	-0.0259441	-0.0864042	-0.150779	-0.0282289	2.08213	2.07258	-0.0964986	-0.12833	-0.0181117	1.97086	2.08299
0.04	0.227245	-0.0105378	0.0368728	-0.595304	0.566093	-0.615954	1.33152	-0.251471	0.188154	1.68285	0.0211411	-0.60785	-0.00241763	1.34826	-0.187919	0.179361	1.67631	-0.04455	-0.594497	-0.00241763	-0.371758	0.0322444	-0.0264281	-0.0859193	-0.150493	-0.0276401	2.08251	2.07231	-0.0968014	-0.12858	-0.0186932	1.97147	2.0823
0.05	0.228001	-0.010382	0.0368671	-0.595377	0.566149	-0.615934	1.33073	-0.251399	0.188271	1.68277	0.0212049	-0.607847	-0.00241763	1.34743	-0.187943	0.17917	1.67624	-0.0445442	-0.59424	-0.00241763	-0.373136	0.0320968	-0.0265793	-0.0855853	-0.1503	-0.0275874	2.08252	2.07297	-0.0969641	-0.128771	-0.0192517	1.97163	2.08216
0.06	0.228792	-0.0104444	0.0368747	-0.595454	0.566231	-0.61592	1.32975	-0.251255	0.188118	1.68258	0.0212684	-0.607773	-0.00241763	1.34656	-0.188003	0.179195	1.67617	-0.044547	-0.594237	-0.00241763	-0.374357	0.0320529	-0.0264844	-0.0852821	-0.150098	-0.0278259	2.08222	2.07355	-0.0969504	-0.1288	-0.0201294	1.97142	2.0832
0.07	0.229406	-0.0104479	0.0370469	-0.595522	0.56633	-0.615957	1.32891	-0.25146	0.187869	1.68235	0.0212646	-0.607636	-0.00241763	1.34577	-0.187662	0.17917	1.67595	-0.0445591	-0.594477	-0.00241763	-0.375178	0.0318204	-0.0263844	-0.0851946	-0.149962	-0.028412	2.08156	2.07354	-0.0967461	-0.128471	-0.0209913	1.97076	2.08444
0.08	0.230117	-0.0101004	0.0373969	-0.595588	0.566426	-0.616054	1.32811	-0.25214	0.187953	1.68225	0.0212684	-0.607477	-0.00241763	1.34475	-0.186891	0.178773	1.67566	-0.0446695	-0.595057	-0.00241763	-0.376373	0.0314886	-0.0269422	-0.084941	-0.149868	-0.0286924	2.08116	2.07344	-0.0967832	-0.127948	-0.0222525	1.97053	2.08513
0.09	0.23109	-0.00958561	0.037446	-0.595671	0.566489	-0.616106	1.32726	-0.252467	0.188421	1.68228	0.021181	-0.607492	-0.00241763	1.3436	-0.186733	0.178041	1.67563	-0.0448579	-0.595287	-0.00241763	-0.378435	0.0312609	-0.0278571	-0.084228	-0.149653	-0.02828	2.08153	2.07381	-0.0972292	-0.127645	-0.0240242	1.97133	2.08508
0.1	0.231641	-0.00945917	0.0370555	-0.595752	0.566517	-0.616076	1.32682	-0.252	0.188557	1.68215	0.0208854	-0.607693	-0.00241763	1.34316	-0.187543	0.177501	1.67581	-0.0450426	-0.594727	-0.00241763	-0.379858	0.0309872	-0.0278285	-0.0838311	-0.149366	-0.0283302	2.08171	2.07388	-0.0973211	-0.127528	-0.0250211	1.97177	2.08439
0.11	0.231614	-0.00974647	0.0368522	-0.595821	0.566564	-0.616058	1.3267	-0.251551	0.188087	1.68179	0.0206406	-0.607687	-0.00241763	1.34335	-0.188099	0.177453	1.67578	-0.0452065	-0.594079	-0.00241763	-0.380076	0.0306047	-0.0269822	-0.0841458	-0.149171	-0.0294542	2.08099	2.07298	-0.0966262	-0.12729	-0.0249507	1.97083	2.08406
0.12	0.232005	-0.00977404	0.0371084	-0.595915	0.566665	-0.61609	1.3261	-0.25172	0.187837	1.68147	0.0206217	-0.607419	-0.00241763	1.34287	-0.187706	0.177378	1.67542	-0.0453226	-0.593759	-0.00241763	-0.381148	0.0302556	-0.0268469	-0.0842122	-0.149003	-0.0303115	2.08044	2.07227	-0.0958929	-0.12703	-0.0253194	1.97005	2.08471
0.13	0.233328	-0.00911919	0.0372467	-0.596076	0.56678	-0.616084	1.32489	-0.251954	0.188479	1.68136	0.0206078	-0.60737	-0.00241763	1.34118	-0.187151	0.176674	1.675	-0.0454129	-0.593578	-0.00241763	-0.384397	0.0298251	-0.0276836	-0.0833337	-0.148634	-0.0300209	2.08113	2.07254	-0.0956725	-0.127088	-0.0267097	1.97102	2.08493
0.14	0.234987	-0.00809186	0.0368552	-0.596297	0.566846	-0.615994	1.3237	-0.251677	0.189642	1.68135	0.0204584	-0.607459	-0.00241763	1.33908	-0.187079	0.175542	1.67464	-0.0454645	-0.593495	-0.00241763	-0.388643	0.0290838	-0.0284194	-0.0820003	-0.148043	-0.0294352	2.08261	2.07257	-0.0955513	-0.127469	-0.0281911	1.97311	2.08312
